<!-- sample rectangle -->
<svg width="200" height="200" xmlns="http://www.w3.org/2000/svg">
      <defs>
    <linearGradient id="linear" x1="0%" y1="100%" x2="0%" y2="0%">
    <stop offset="0%" stop-color="#cc00ff"/>
    <stop offset="100%" stop-color="#6600ff"/>
    </linearGradient>
    <linearGradient id="e" x1="0%" y1="100%" x2="0%" y2="0%" gradientUnits="userSpaceOnUse">
          <stop stop-color="#cc00ff" offset="0" />
          <stop stop-color="#6600ff" offset="1" />
      </linearGradient>
    </defs>
  
    <circle cx="100" cy="50" r="20" fill="white" stroke="url(#linear)" stroke-width="5"></circle>
    <circle cx="80" cy="45" r="10" fill="red" stroke="url(#linear)" stroke-width="5"></circle>
    <circle cx="120" cy="45" r="10" fill="red" stroke="url(#linear)" stroke-width="5"></circle>
  
    
  
    <ellipse cx="100" cy="150" rx="35" ry="40" fill="white" stroke="url(#linear)" stroke-width="5"></ellipse>
    <ellipse cx="100" cy="90" rx="25" ry="25" fill="white" stroke="url(#linear)" stroke-width="5"></ellipse>
  
    <line x1="100" y1="115" x2="100" y2="65" stroke="url(#e)" stroke-width="5"/>
    <line x1="90" y1="115" x2="90" y2="65" stroke="url(#e)" stroke-width="5"/>
    <line x1="110" y1="115" x2="110" y2="65" stroke="url(#e)" stroke-width="5"/>
  
      <line x1="75" y1="90" x2="40" y2="65" stroke="url(#e)" stroke-width="7"/>
      <line x1="40" y1="67" x2="35" y2="30" stroke="url(#e)" stroke-width="7"/>
  
      <line x1="75" y1="90" x2="10" y2="110" stroke="url(#e)" stroke-width="7"/>
  
      <line x1="125" y1="90" x2="160" y2="65" stroke="url(#e)" stroke-width="7"/>
      <line x1="160" y1="67" x2="165" y2="30" stroke="url(#e)" stroke-width="7"/>
  
      <line x1="125" y1="90" x2="190" y2="110" stroke="url(#e)" stroke-width="7"/>
  
    <ellipse cx="85" cy="185" rx="25" ry="60" fill="none" stroke="url(#linear)" stroke-width="5" transform="rotate(-20 -30 0)"></ellipse>
    <ellipse cx="108" cy="100" rx="25" ry="60" fill="none" stroke="url(#linear)" stroke-width="5" transform="rotate( 25 0 0)"></ellipse>
  </svg>